<?xml version="1.0" standalone="no"?>
<!DOCTYPE svg PUBLIC "-//W3C//DTD SVG 20010904//EN"
 "http://www.w3.org/TR/2001/REC-SVG-20010904/DTD/svg10.dtd">
<svg version="1.0" xmlns="http://www.w3.org/2000/svg"
 width="2048.000000pt" height="1536.000000pt" viewBox="0 0 2048.000000 1536.000000"
 preserveAspectRatio="xMidYMid meet">

<g transform="translate(0.000000,1536.000000) scale(0.100000,-0.100000)"
fill="#000000" stroke="none">
<path d="M8246 15164 c-3 -9 -13 -14 -20 -11 -14 6 -16 2 -16 -48 0 -21 -1
-64 -3 -178 -1 -37 2 -67 6 -67 5 0 5 -5 1 -11 -9 -15 -11 -329 -2 -329 4 0 3
-11 -2 -25 -5 -14 -6 -25 -2 -25 4 0 8 -96 9 -213 1 -195 5 -275 19 -427 3
-30 7 -89 9 -130 2 -41 4 -75 5 -75 3 0 11 -42 15 -85 3 -25 7 -56 10 -70 3
-14 8 -43 10 -65 3 -22 10 -62 15 -90 6 -27 13 -68 16 -90 3 -22 9 -53 14 -70
5 -16 11 -45 12 -63 1 -19 6 -36 10 -38 5 -3 6 -10 2 -15 -3 -5 -1 -15 4 -22
5 -7 10 -19 10 -27 2 -25 39 -212 52 -260 6 -25 12 -52 12 -60 0 -8 5 -21 11
-27 6 -9 6 -13 -2 -13 -7 0 -9 -5 -4 -12 4 -7 8 -16 9 -20 1 -5 3 -10 4 -13 3
-6 4 -9 14 -60 4 -22 12 -45 17 -51 15 -19 -18 -45 -47 -38 -31 8 -98 -22 -90
-42 6 -17 -13 -30 -38 -25 -14 2 -18 -2 -14 -17 11 -40 -8 -53 -68 -46 -31 4
-64 2 -77 -3 -42 -20 -105 -35 -116 -29 -6 4 -15 -3 -20 -17 -11 -29 -57 -77
-74 -77 -7 0 -21 -7 -31 -15 -11 -8 -29 -15 -41 -15 -25 0 -45 -18 -45 -41 0
-10 -10 -21 -22 -24 -55 -15 -88 -40 -103 -78 -9 -23 -24 -41 -36 -44 -16 -4
-19 -11 -15 -29 6 -22 3 -24 -26 -24 -28 1 -39 9 -68 48 -42 56 -87 101 -95
94 -3 -3 -5 0 -5 6 0 12 -34 49 -190 211 -47 48 -97 101 -111 117 -15 16 -46
47 -70 70 -24 22 -56 54 -71 71 -14 17 -29 29 -32 26 -3 -4 -6 1 -6 10 0 10
-6 17 -14 17 -8 0 -16 7 -20 15 -3 8 -11 15 -18 15 -8 0 -22 16 -32 35 -11 19
-23 35 -27 35 -5 0 -48 40 -96 90 -48 49 -94 90 -102 90 -8 0 -12 3 -9 6 4 3
-10 21 -30 39 -85 77 -140 134 -134 140 4 4 2 5 -4 3 -11 -3 -94 69 -232 199
-31 29 -58 51 -60 49 -2 -3 -17 7 -32 22 -41 40 -94 82 -105 84 -11 3 -36 22
-70 54 -12 12 -35 29 -51 37 -16 8 -40 27 -53 41 -14 14 -30 26 -38 26 -7 0
-13 4 -13 8 0 8 -46 35 -62 36 -3 1 -15 10 -25 22 -10 11 -32 26 -50 33 -17 7
-39 21 -49 32 -9 10 -21 19 -26 19 -4 0 -30 15 -56 33 -77 52 -86 57 -104 63
-10 4 -18 10 -18 15 0 5 -7 9 -17 9 -9 0 -30 10 -47 23 -28 21 -91 57 -196
113 -19 11 -36 22 -38 27 -2 4 -12 7 -23 7 -10 0 -19 3 -19 8 0 4 -24 18 -52
31 -29 13 -60 30 -70 38 -9 8 -24 16 -33 17 -9 1 -24 9 -34 17 -9 8 -39 25
-67 37 -27 13 -56 28 -64 33 -8 5 -22 12 -30 15 -8 4 -27 11 -42 18 -16 6 -28
14 -28 18 0 3 -13 9 -30 13 -16 4 -32 10 -34 14 -3 4 -36 22 -73 40 -37 18
-75 37 -83 42 -8 5 -23 12 -32 15 -10 4 -18 11 -18 16 0 6 -9 8 -19 5 -12 -3
-33 7 -55 25 -20 16 -36 27 -36 24 0 -3 -16 3 -35 14 -20 11 -44 20 -55 20
-11 0 -20 4 -20 9 0 5 -10 13 -22 17 -13 4 -50 20 -83 35 -54 24 -110 49 -125
54 -3 1 -18 8 -35 15 -16 7 -35 14 -41 15 -6 2 -28 11 -49 21 -20 9 -43 17
-51 17 -8 0 -14 4 -14 9 0 4 -8 8 -17 8 -10 1 -36 8 -58 16 -22 9 -47 17 -55
18 -8 2 -31 11 -51 19 -20 9 -52 19 -70 22 -18 3 -38 10 -44 15 -5 4 -13 9
-17 9 -5 1 -9 1 -10 2 -12 3 -50 10 -86 15 -23 3 -60 11 -82 19 -22 8 -42 14
-45 15 -3 0 -6 0 -7 1 -11 3 -50 9 -83 13 -104 13 -132 17 -165 23 -59 11 -70
12 -210 18 -180 7 -548 3 -670 -9 -191 -17 -209 -22 -204 -53 1 -7 2 -18 3
-24 1 -8 21 -9 63 -5 150 15 446 29 558 27 151 -4 286 -11 335 -16 28 -3 70
-6 95 -8 25 -1 51 -6 58 -10 6 -5 17 -5 22 -2 6 4 16 3 23 -2 7 -5 28 -8 47
-7 19 0 40 -2 45 -6 6 -4 28 -11 50 -14 22 -3 57 -10 78 -15 24 -6 37 -5 37 1
0 6 16 0 36 -11 19 -12 39 -19 44 -16 5 3 11 1 15 -5 3 -5 15 -10 25 -10 11 0
40 -7 66 -16 26 -9 60 -17 76 -19 16 -2 35 -11 44 -20 8 -8 28 -15 43 -15 15
0 31 -4 36 -9 6 -5 19 -11 30 -13 11 -1 22 -6 25 -10 3 -4 15 -9 25 -11 11 -2
33 -9 48 -16 16 -6 33 -9 38 -5 5 3 9 1 9 -4 0 -11 46 -34 79 -39 13 -2 33
-11 45 -19 11 -8 27 -14 34 -14 8 0 25 -9 40 -20 18 -15 28 -17 33 -9 4 8 11
4 19 -10 6 -13 18 -20 25 -17 7 2 19 -2 26 -10 7 -8 18 -13 26 -10 7 3 13 1
13 -3 0 -12 113 -65 124 -58 2 1 12 -5 22 -13 11 -9 37 -25 59 -35 22 -11 42
-23 43 -27 2 -5 11 -8 21 -8 9 0 32 -11 50 -24 19 -14 46 -28 62 -31 16 -4 32
-11 35 -17 7 -10 92 -51 109 -53 6 0 22 -10 35 -23 13 -12 31 -22 41 -22 9 0
22 -7 29 -15 7 -8 23 -15 36 -15 13 0 24 -4 24 -10 0 -8 53 -42 70 -45 20 -3
80 -30 80 -36 0 -4 14 -12 30 -19 17 -7 30 -16 30 -21 0 -5 9 -9 19 -9 11 0
21 -5 23 -11 2 -5 10 -11 19 -12 9 -2 28 -10 42 -20 15 -9 30 -17 34 -17 5 0
19 -10 33 -22 14 -13 41 -31 60 -40 41 -21 88 -48 124 -72 15 -9 32 -14 39
-10 7 4 9 3 4 -1 -8 -10 43 -46 55 -39 4 3 8 1 8 -4 0 -4 18 -18 40 -31 22
-12 40 -26 40 -30 0 -5 8 -12 18 -15 28 -10 61 -32 87 -56 14 -13 25 -20 25
-15 0 5 12 -2 28 -16 32 -30 99 -79 106 -79 3 0 16 -10 29 -22 44 -41 79 -68
87 -68 5 0 18 -12 29 -26 12 -15 21 -24 21 -20 0 6 29 -17 81 -64 16 -14 43
-36 61 -50 42 -33 127 -108 208 -186 161 -154 193 -184 202 -184 5 0 6 -4 3
-10 -3 -5 0 -10 7 -10 8 0 27 -18 44 -40 16 -22 32 -40 36 -40 10 0 78 -72 78
-82 0 -5 4 -7 9 -4 5 3 35 -24 68 -59 33 -36 65 -65 72 -65 6 0 11 -6 11 -13
0 -15 44 -57 60 -57 5 0 14 -9 20 -20 16 -30 97 -119 103 -113 3 3 13 -9 22
-26 8 -17 19 -31 23 -31 9 0 66 -56 117 -115 22 -26 61 -67 88 -93 26 -25 47
-51 47 -59 0 -7 4 -13 9 -13 13 0 84 -70 78 -76 -3 -3 -13 -7 -24 -8 -12 -2
-19 -13 -21 -34 -2 -18 -7 -32 -12 -32 -5 0 -16 -13 -25 -29 -9 -18 -29 -35
-50 -42 -26 -10 -35 -19 -35 -36 0 -26 -3 -27 -29 -11 -31 19 -51 3 -51 -42 0
-48 -16 -58 -66 -42 -32 10 -36 9 -46 -14 -12 -26 -23 -30 -33 -14 -8 14 -46
2 -62 -19 -7 -9 -13 -28 -13 -43 0 -23 -4 -28 -26 -28 -17 0 -42 -14 -70 -40
-24 -22 -48 -40 -54 -40 -20 0 -90 -64 -90 -82 0 -10 -11 -25 -24 -33 -13 -9
-26 -25 -29 -35 -3 -11 -17 -24 -31 -30 -26 -10 -35 -34 -16 -45 6 -3 17 -20
26 -36 14 -28 14 -31 -8 -49 -13 -11 -27 -20 -33 -20 -5 0 -21 -10 -34 -21
-21 -17 -23 -24 -15 -47 12 -33 1 -92 -20 -104 -26 -15 -38 -77 -21 -112 13
-26 13 -31 0 -46 -10 -12 -12 -19 -4 -27 8 -8 8 -13 0 -17 -6 -4 -11 -16 -11
-27 0 -11 -7 -19 -16 -19 -12 0 -14 -8 -8 -45 5 -33 2 -51 -10 -70 -21 -32
-20 -42 4 -50 17 -5 18 -9 7 -26 -10 -16 -9 -25 6 -50 21 -37 21 -58 2 -83
-10 -13 -11 -24 -4 -37 7 -13 6 -19 -1 -19 -7 0 -10 -26 -9 -73 1 -40 -3 -83
-10 -94 -7 -14 -8 -24 -1 -28 5 -3 10 -26 10 -50 0 -37 -5 -48 -25 -61 -24
-16 -25 -18 -9 -35 16 -18 16 -19 -9 -19 -33 0 -97 -30 -97 -45 0 -6 5 -16 11
-22 12 -12 -37 -36 -67 -33 -39 4 -45 1 -38 -25 5 -22 3 -24 -23 -22 -24 2
-31 -4 -48 -40 -13 -29 -28 -45 -45 -49 -52 -12 -90 -35 -90 -54 0 -32 -11
-50 -42 -66 -20 -10 -27 -20 -24 -32 7 -22 -17 -54 -36 -47 -21 8 -65 -31 -73
-64 -4 -19 -14 -31 -30 -35 -16 -4 -29 -20 -40 -50 -15 -40 -53 -93 -86 -121
-6 -5 -29 -27 -50 -47 -21 -21 -45 -38 -53 -38 -8 0 -18 -9 -21 -20 -3 -11
-13 -20 -22 -20 -12 0 -14 -10 -11 -46 3 -41 0 -50 -35 -87 -29 -31 -37 -47
-32 -64 4 -17 -2 -30 -20 -47 -14 -13 -25 -30 -25 -38 0 -30 -31 -78 -51 -78
-13 0 -20 -6 -18 -17 4 -49 -1 -63 -25 -63 -33 0 -46 -52 -20 -81 15 -16 15
-23 5 -46 -7 -15 -21 -33 -32 -41 -13 -9 -19 -25 -19 -52 0 -29 -5 -42 -20
-50 -28 -15 -25 -27 13 -46 17 -10 26 -19 20 -21 -7 -3 -13 -13 -13 -24 0 -11
-21 -40 -46 -66 -41 -40 -45 -48 -31 -58 13 -9 14 -14 5 -23 -9 -9 -8 -19 6
-42 18 -32 20 -29 -29 -45 -8 -2 -14 -16 -14 -32 1 -54 -8 -91 -30 -121 l-22
-31 41 -27 41 -27 -22 -23 -21 -23 22 -33 c13 -18 28 -37 34 -43 11 -9 46 -77
46 -88 0 -3 -11 -8 -25 -11 -14 -4 -25 -12 -25 -19 1 -21 65 -87 85 -87 18 0
18 0 -1 -15 -18 -14 -17 -16 24 -54 23 -22 42 -44 42 -48 0 -4 14 -22 30 -40
17 -18 30 -40 30 -50 0 -10 11 -35 25 -55 14 -20 25 -41 25 -46 0 -16 30 -23
51 -11 33 17 76 2 88 -32 7 -20 23 -35 51 -48 l41 -18 -25 -24 c-29 -27 -33
-44 -12 -52 7 -3 16 -19 18 -36 4 -30 3 -31 -30 -31 -29 0 -34 -3 -29 -20 3
-11 2 -20 -3 -20 -8 0 -24 -58 -21 -75 4 -16 0 -62 -8 -114 -1 -2 -7 2 -14 8
-19 15 -27 4 -21 -29 7 -32 -31 -80 -63 -80 -31 0 -33 -9 -13 -64 25 -65 25
-74 -2 -78 -19 -2 -23 -9 -21 -34 2 -25 -2 -33 -18 -37 -17 -5 -20 -11 -15
-31 5 -21 2 -27 -19 -32 -32 -8 -32 -27 0 -52 31 -24 34 -56 6 -47 -37 11 -52
-48 -29 -113 12 -32 11 -35 -15 -54 l-27 -20 21 -26 c12 -16 18 -34 15 -47 -4
-14 3 -30 19 -48 27 -29 33 -49 12 -41 -17 6 -32 -12 -41 -48 -5 -21 -2 -30
15 -39 21 -11 21 -11 -10 -30 -36 -22 -40 -39 -10 -46 14 -4 18 -10 12 -22 -9
-20 -4 -171 7 -190 4 -8 3 -23 -4 -33 -9 -15 -6 -23 22 -49 22 -20 32 -39 32
-59 0 -16 5 -32 11 -36 6 -3 8 -17 5 -30 -5 -17 -2 -24 9 -24 21 0 19 -13 -5
-35 -24 -22 -16 -35 40 -60 30 -14 39 -23 34 -34 -17 -42 -15 -50 15 -65 22
-12 31 -24 31 -41 0 -14 15 -54 32 -90 26 -52 37 -65 50 -61 10 4 26 9 37 12
15 5 19 1 19 -21 0 -33 57 -88 84 -79 19 6 25 -10 8 -21 -11 -7 -14 -48 -3
-58 3 -4 13 -1 21 5 12 10 18 7 36 -15 23 -29 42 -35 49 -14 3 9 8 9 21 -2 9
-8 14 -21 11 -28 -5 -14 58 -83 75 -83 4 0 11 -11 14 -25 4 -14 13 -25 22 -25
9 0 21 -14 27 -31 11 -27 15 -30 42 -25 73 14 72 14 88 -19 16 -33 96 -95 122
-95 8 0 17 -4 20 -10 3 -5 18 -10 33 -10 15 -1 38 -7 52 -15 35 -20 50 -18 50
7 l0 21 25 -23 c21 -20 31 -22 79 -17 34 3 72 0 102 -9 73 -22 89 -19 113 22
12 19 19 40 16 45 -4 5 18 7 49 4 49 -3 56 -1 70 21 9 13 26 24 37 24 11 0 31
7 44 16 14 9 35 14 47 11 13 -4 31 2 46 14 35 27 50 24 86 -18 17 -20 36 -40
41 -44 74 -60 70 -53 50 -83 -16 -23 -16 -29 -4 -37 8 -5 22 -9 32 -9 25 0 40
-46 28 -83 -7 -19 -7 -35 -1 -47 14 -26 13 -30 -9 -30 -10 0 -25 -7 -32 -16
-11 -14 -10 -18 6 -31 11 -7 30 -16 43 -20 25 -6 27 -15 10 -43 -10 -16 -9
-23 12 -45 18 -19 23 -35 22 -61 -3 -45 31 -103 69 -116 27 -9 28 -11 13 -34
-24 -36 -11 -56 33 -52 34 3 36 1 39 -27 9 -85 7 -80 47 -83 29 -3 41 -9 49
-28 11 -24 19 -28 51 -24 15 1 17 -4 11 -41 -7 -42 -7 -42 22 -36 22 4 36 -2
68 -29 22 -19 48 -34 57 -34 13 0 17 -7 16 -27 -2 -25 2 -28 33 -31 19 -2 43
-11 53 -20 15 -13 22 -14 37 -4 35 21 57 15 64 -19 5 -27 9 -30 30 -25 31 8
84 -11 97 -35 10 -20 39 -26 39 -9 0 16 52 11 65 -6 6 -9 25 -17 41 -18 16 -1
36 -6 44 -11 8 -5 35 -11 60 -11 111 -4 207 -13 231 -23 15 -5 60 -8 102 -6
l75 3 6 -29 c6 -33 21 -37 47 -13 13 12 22 13 38 5 28 -16 51 -14 51 5 0 8 6
21 13 29 12 11 19 10 43 -6 35 -23 74 -25 74 -4 0 13 7 15 38 9 20 -4 42 -10
48 -15 11 -9 132 17 149 32 5 5 17 9 27 9 10 0 21 7 24 15 5 11 9 12 25 2 16
-10 23 -8 42 15 27 33 41 36 89 19 40 -13 58 -9 58 15 0 11 6 13 21 9 35 -11
162 59 172 94 4 16 12 18 57 13 50 -5 52 -4 48 19 -3 20 2 24 35 30 21 3 49
12 63 19 19 11 27 11 36 2 17 -17 39 -15 54 6 7 9 14 12 14 5 0 -6 -4 -15 -10
-18 -5 -3 -10 -19 -10 -36 0 -24 4 -29 24 -29 13 0 29 7 36 15 15 18 38 13 88
-21 41 -28 58 -27 54 4 -3 18 2 22 22 22 18 0 24 -4 20 -15 -9 -22 37 -40 66
-25 38 20 81 22 87 2 11 -45 143 -88 143 -48 0 12 7 13 31 6 18 -5 35 -7 40
-4 4 2 12 -3 18 -13 9 -16 11 -17 28 -1 13 12 35 17 73 16 46 0 58 4 77 26 17
20 31 26 62 26 24 0 46 7 56 17 14 14 22 14 49 5 41 -15 83 -15 91 -1 5 7 14
3 27 -11 25 -26 52 -22 56 8 2 13 11 26 20 29 9 3 25 12 34 20 13 11 21 12 37
3 31 -16 43 -3 38 41 -3 30 0 42 12 48 20 10 42 4 59 -18 12 -15 14 -15 25 0
9 12 18 14 35 8 17 -7 30 -3 52 12 21 16 37 20 60 16 23 -5 35 -2 50 13 11 11
31 20 45 20 18 0 28 7 35 26 7 18 15 24 26 20 21 -8 68 19 116 67 34 35 43 38
81 35 42 -3 42 -3 45 32 5 48 18 60 67 60 37 0 50 6 86 41 23 22 55 43 70 46
16 3 29 10 29 14 0 5 11 14 24 20 13 6 27 20 29 30 5 18 26 24 74 20 17 -1 24
6 31 30 5 22 14 33 28 34 11 1 36 13 56 28 19 15 47 27 61 27 20 0 27 5 27 19
0 10 7 24 15 31 8 7 15 19 15 27 0 11 7 13 24 9 14 -3 28 -1 31 4 4 6 24 22
46 36 21 13 39 30 39 36 0 16 69 78 87 78 7 0 22 14 35 30 12 17 30 30 40 30
10 0 18 7 18 15 0 27 72 93 101 93 33 -1 76 27 85 54 5 17 12 20 46 15 34 -5
41 -2 45 14 4 13 14 19 34 19 32 0 47 16 30 33 -17 17 -13 24 16 32 15 3 33
15 40 25 7 10 23 20 36 22 19 3 22 9 21 50 l0 48 36 0 c41 0 80 23 80 49 0 25
11 33 24 17 6 -8 20 -16 31 -18 18 -3 20 3 20 48 0 64 16 84 65 84 34 0 39 3
53 38 9 21 26 43 40 49 14 7 28 22 32 35 10 32 35 58 55 58 9 0 23 15 32 33
14 30 20 33 47 29 43 -6 67 4 52 22 -8 10 -9 16 -1 21 5 3 10 -1 10 -9 0 -35
54 -9 68 34 6 17 22 34 36 39 13 6 27 15 31 20 4 8 15 6 34 -4 31 -16 41 -12
41 17 0 11 12 39 26 64 15 26 23 51 20 61 -6 16 -6 16 12 0 10 -9 27 -17 37
-17 14 0 16 6 12 29 -4 19 -1 33 8 41 8 7 15 20 15 30 0 12 11 20 34 24 19 4
36 13 39 20 4 9 14 12 26 9 26 -7 29 21 4 36 -17 10 -16 12 4 28 20 16 21 22
12 62 -5 24 -8 49 -5 55 2 6 5 1 5 -11 1 -19 35 -42 47 -30 2 2 6 28 9 58 4
56 19 75 75 99 23 10 60 59 60 81 0 5 -9 18 -20 29 -25 25 -25 40 0 40 16 0
20 7 20 35 0 19 4 35 9 35 19 0 53 60 45 78 -4 9 -8 54 -8 100 -1 68 -4 86
-18 96 -22 16 -23 48 -3 85 23 46 22 93 -5 131 -19 27 -21 36 -12 51 16 25 15
48 -2 55 -8 3 -16 17 -19 32 -3 15 -12 36 -20 47 -13 17 -17 17 -31 6 -23 -19
-39 -2 -34 35 2 22 8 28 21 26 14 -2 18 2 15 19 -2 18 3 23 27 26 33 5 46 19
37 41 -3 9 7 25 28 42 31 26 32 28 17 51 -18 27 -13 40 21 58 13 7 21 20 20
29 -2 10 4 17 12 17 17 0 61 31 97 67 24 24 31 58 11 58 -6 0 -4 7 5 18 10 10
17 23 17 29 0 6 14 16 30 22 32 11 39 28 16 37 -13 5 -13 11 1 40 9 19 22 34
29 34 6 0 19 11 27 24 9 13 22 29 29 37 24 25 48 68 48 85 0 10 5 32 12 50 10
28 9 35 -11 60 -21 27 -22 29 -4 33 26 5 53 31 53 51 0 10 14 34 30 55 25 31
30 47 30 92 0 29 6 62 12 73 11 16 9 22 -6 33 -14 10 -17 21 -12 40 3 14 2 29
-4 32 -18 11 -11 35 10 35 12 0 20 7 21 18 8 118 8 123 -9 120 -12 -2 -17 4
-17 19 0 12 -4 25 -7 29 -4 3 9 22 28 42 33 34 44 62 25 62 -5 0 -19 14 -32
31 -16 23 -19 33 -10 42 15 15 14 72 -1 97 -10 15 -9 24 1 44 11 20 11 28 2
40 -7 8 -17 44 -22 80 -5 37 -14 75 -21 86 -10 15 -9 22 5 38 26 29 21 41 -21
48 l-37 6 4 45 3 45 -29 -6 c-40 -9 -57 12 -49 59 7 34 -16 95 -35 95 -16 0
-39 33 -39 55 0 29 -16 41 -35 25 -10 -8 -17 -6 -29 12 -9 12 -16 31 -16 41 0
23 -62 87 -83 87 -8 0 -20 13 -25 30 -10 27 -14 29 -43 23 -27 -5 -36 -1 -66
32 -28 31 -39 36 -62 32 -37 -8 -50 3 -49 41 1 26 5 32 23 32 26 0 36 25 29
73 -8 51 -10 127 -3 127 5 0 10 30 22 150 2 20 -3 26 -24 28 -24 3 -25 7 -38
110 -7 59 -12 119 -12 134 1 15 -3 29 -9 33 -5 3 -10 14 -10 24 0 10 -9 21
-20 24 -11 3 -20 13 -20 24 -1 31 -26 66 -61 82 -30 14 -34 21 -35 56 -1 73
-10 85 -60 85 -37 0 -44 3 -44 20 0 11 -12 26 -29 34 -16 9 -31 22 -34 31 -9
22 -54 19 -69 -5 -15 -24 -41 -26 -58 -5 -7 8 -20 15 -30 15 -10 0 -24 9 -31
20 -10 15 -27 22 -61 24 -25 1 -52 7 -60 13 -32 26 -110 5 -87 -23 17 -21 -18
-30 -40 -10 -10 9 -35 16 -55 16 -30 0 -39 -4 -43 -21 -5 -17 -11 -19 -37 -13
-40 8 -43 11 -28 34 14 23 16 66 4 74 -15 9 0 70 24 99 l23 27 -20 47 c-13 30
-18 57 -13 75 5 24 2 30 -15 35 -29 7 -26 27 6 51 27 19 27 22 15 54 -8 18
-17 50 -21 70 -7 32 -5 37 12 42 16 4 18 8 9 19 -7 8 -13 43 -14 78 -1 51 -6
67 -22 80 -17 14 -18 19 -7 32 15 19 4 45 -31 74 -32 26 -57 78 -51 102 4 15
-11 41 -53 93 -80 100 -119 133 -156 133 -24 0 -34 7 -47 31 -18 34 -108 96
-131 89 -9 -2 -26 11 -43 36 -15 22 -32 37 -37 34 -5 -3 -14 4 -20 15 -6 11
-19 20 -28 20 -10 0 -37 9 -61 21 -32 15 -46 17 -56 9 -10 -8 -21 -7 -43 4
-17 9 -32 19 -34 24 -1 4 -20 18 -41 31 -32 20 -38 21 -43 7 -9 -24 -25 -19
-19 7 8 36 -7 50 -39 36 -19 -9 -29 -10 -38 -1 -6 6 -24 8 -39 5 -19 -3 -29
-1 -29 6 0 17 -67 43 -123 47 -32 2 -59 12 -82 29 -18 15 -55 33 -82 40 -26 8
-69 22 -94 31 -45 18 -46 17 -74 -4 -18 -14 -40 -22 -59 -20 -39 2 -56 -7 -56
-33 0 -24 -19 -25 -26 -1 -14 43 -20 47 -75 44 -40 -2 -59 -9 -72 -24 -18 -21
-19 -21 -48 -4 -16 9 -33 15 -38 11 -5 -3 -12 -1 -16 5 -4 6 -15 4 -30 -6 -15
-10 -25 -12 -30 -5 -10 17 -45 13 -45 -4 0 -20 -10 -19 -36 6 -21 20 -24 20
-39 5 -9 -9 -21 -16 -26 -16 -5 0 -9 -7 -9 -15 0 -8 -4 -15 -10 -15 -5 0 -10
6 -10 13 0 8 -8 21 -19 31 -16 15 -19 15 -31 1 -7 -8 -23 -15 -36 -15 -13 0
-28 -9 -33 -19 -10 -17 -13 -18 -52 -5 -32 11 -44 12 -55 3 -11 -9 -11 -15 -3
-25 27 -33 -31 -51 -68 -22 -28 22 -239 -37 -298 -83 -13 -11 -26 -15 -29 -10
-7 11 -78 -6 -87 -21 -5 -7 -17 -7 -39 0 -29 10 -33 10 -37 -8 -4 -16 -14 -20
-45 -20 -43 0 -138 -29 -138 -42 0 -19 -20 -5 -44 32 -17 26 -41 46 -67 56
-22 9 -45 24 -52 34 -16 22 -70 50 -99 50 -17 0 -19 3 -9 9 23 15 -16 64 -45
57 -18 -5 -27 0 -40 19 -18 28 -55 33 -74 10 -18 -22 -30 -18 -41 14 -7 18
-25 36 -54 51 -47 24 -66 21 -58 -10 4 -17 0 -20 -25 -20 -16 0 -35 7 -42 15
-13 15 -56 15 -94 -1 -13 -5 -17 -4 -12 4 8 14 -42 37 -102 47 -28 4 -43 13
-47 26 -7 22 -18 24 -44 8 -26 -17 -66 -4 -79 26 l-12 26 -43 -26 c-55 -32
-75 -32 -83 1 -5 18 -12 24 -23 21 -32 -10 -86 -30 -101 -37 -10 -5 -24 -1
-37 10 -18 14 -31 16 -65 10 -24 -5 -50 -4 -60 1 -23 12 -62 11 -75 -2 -8 -8
-16 -7 -31 2 -16 10 -30 9 -80 -7 -52 -17 -72 -19 -142 -11 -93 10 -114 6
-105 -23 5 -17 2 -20 -22 -22 -46 -2 -51 -3 -59 -11 -12 -11 -31 -8 -32 6 -2
36 -32 166 -48 210 -8 20 -13 41 -12 45 1 4 -4 25 -10 47 -6 22 -13 51 -16 65
-2 14 -5 25 -6 25 -1 0 -3 20 -5 44 -2 23 -9 49 -16 57 -6 7 -13 35 -15 61 -3
47 -8 78 -18 111 -3 9 -7 35 -10 57 -2 22 -10 63 -16 90 -7 28 -13 59 -14 70
-3 22 -16 99 -22 130 -5 27 -18 144 -18 173 -1 12 -5 22 -9 22 -5 0 -6 4 -3 8
3 4 1 25 -4 45 -5 23 -4 37 2 37 5 0 6 6 1 13 -7 12 -8 23 -18 217 -12 257
-21 1036 -12 1098 2 19 -2 47 -10 63 -17 34 -19 35 -27 13z m1799 -4824 c3 -5
12 -7 20 -3 9 3 22 -1 31 -8 21 -17 104 -29 132 -18 21 8 82 0 125 -17 12 -4
17 -1 17 11 0 25 47 11 85 -24 17 -16 43 -31 58 -35 21 -5 27 -11 23 -24 -3
-9 -2 -23 3 -30 7 -12 12 -12 32 0 13 7 28 19 32 26 6 8 18 11 32 8 14 -4 27
0 35 9 15 18 30 10 30 -16 0 -30 21 -57 41 -52 9 3 27 -5 38 -16 25 -25 41
-27 41 -4 0 15 2 14 19 -1 11 -10 23 -31 26 -47 8 -34 59 -81 80 -73 20 8 31
-24 17 -47 -18 -28 -15 -32 22 -25 30 6 37 3 64 -31 17 -21 40 -47 50 -58 10
-11 24 -35 31 -52 8 -18 17 -33 22 -33 12 0 40 -69 37 -89 -2 -12 4 -16 24
-14 24 1 27 -3 34 -40 4 -23 8 -53 9 -67 1 -14 8 -49 15 -78 11 -41 11 -59 2
-85 -7 -19 -12 -45 -12 -60 0 -15 -4 -27 -9 -27 -5 0 -12 -11 -15 -24 -3 -13
-8 -30 -11 -38 -3 -8 7 -18 25 -26 40 -18 61 -58 47 -89 -6 -13 -14 -23 -19
-23 -4 0 -8 -11 -8 -24 0 -14 -5 -28 -10 -31 -6 -4 -8 -10 -5 -15 3 -5 3 -20
0 -33 -6 -21 -12 -24 -48 -23 -41 1 -41 1 -42 -37 -1 -21 -7 -43 -13 -49 -7
-7 -12 -22 -12 -35 0 -12 -9 -27 -19 -33 -21 -11 -36 -45 -32 -72 1 -12 -4
-18 -18 -18 -12 0 -21 -3 -21 -8 0 -4 -10 -12 -22 -17 -15 -7 -23 -19 -23 -35
0 -14 -4 -32 -10 -40 -5 -8 -15 -31 -20 -50 -9 -30 -15 -35 -45 -38 -24 -2
-44 -13 -61 -33 -31 -34 -39 -36 -39 -9 0 25 -8 25 -38 0 l-23 -19 21 -21 c11
-11 18 -25 16 -29 -10 -15 -59 -9 -90 10 -39 24 -55 24 -63 2 -4 -10 -11 -21
-17 -25 -6 -4 -6 -15 2 -33 11 -23 10 -26 -14 -35 -14 -6 -36 -10 -50 -10 -13
0 -32 -8 -42 -18 -22 -22 -82 -19 -82 4 0 20 -8 18 -47 -12 -22 -17 -42 -24
-56 -21 -24 6 -77 -32 -77 -56 0 -24 -21 -37 -40 -25 -10 7 -25 8 -36 3 -11
-4 -27 -7 -37 -6 -10 2 -27 -5 -37 -14 -12 -11 -26 -14 -40 -10 -15 5 -26 1
-36 -12 -12 -15 -15 -16 -23 -3 -5 8 -8 17 -5 21 2 4 -17 0 -44 -9 -64 -21
-140 -24 -168 -6 -14 10 -52 15 -105 16 -46 1 -87 7 -91 12 -4 6 -8 2 -8 -11
0 -12 -5 -23 -12 -25 -13 -5 -60 10 -98 31 -14 8 -57 16 -97 19 -63 4 -72 7
-75 25 -3 22 -13 29 -73 54 l-40 16 44 20 c25 11 51 25 58 32 7 7 26 19 43 27
16 7 30 16 30 20 0 5 5 8 12 8 6 0 25 10 42 23 17 13 39 26 49 30 9 3 17 13
17 21 0 8 7 19 16 24 11 6 14 16 10 30 -6 19 -27 24 -42 9 -4 -4 -18 -7 -31
-7 -12 0 -23 -4 -23 -9 0 -6 -18 -20 -40 -32 -22 -13 -40 -27 -40 -31 0 -5 -4
-7 -8 -4 -5 3 -23 -8 -41 -25 -18 -16 -36 -27 -40 -24 -4 2 -17 -3 -27 -13
-11 -9 -26 -18 -34 -20 -8 -2 -30 -10 -48 -18 -30 -14 -35 -14 -65 3 -32 19
-60 60 -51 75 3 4 15 8 27 8 12 0 31 7 41 15 11 8 27 15 37 15 9 0 22 7 29 15
7 9 15 13 17 11 3 -2 34 7 70 20 35 13 69 22 74 19 5 -4 9 -2 9 4 0 6 16 13
35 17 19 3 38 10 41 15 3 5 14 9 25 9 11 0 33 7 49 15 24 13 27 18 21 42 -10
37 -39 40 -104 13 -28 -12 -74 -29 -101 -37 -28 -7 -60 -18 -71 -23 -11 -5
-46 -16 -77 -25 -32 -9 -58 -21 -58 -26 0 -6 -5 -7 -11 -4 -5 4 -19 -1 -31
-12 -11 -10 -22 -17 -24 -15 -16 9 -25 -3 -24 -30 5 -86 -13 -91 -61 -15 -33
49 -37 52 -73 49 -28 -2 -37 0 -33 10 2 7 12 12 21 12 20 -2 20 6 2 32 -12 15
-17 17 -27 7 -17 -17 -29 -16 -29 2 0 8 5 15 11 15 6 0 9 10 7 23 -2 16 -11
23 -31 25 -19 2 -31 11 -37 28 -7 18 -17 24 -40 24 -23 0 -33 6 -40 25 -5 14
-7 32 -4 40 9 22 -15 72 -36 78 -17 4 -18 8 -7 30 6 14 15 21 18 15 4 -7 9 -7
13 0 3 6 -4 19 -17 29 -29 23 -42 54 -25 64 9 6 9 11 -1 22 -8 10 -10 28 -6
50 5 28 3 37 -11 45 -17 10 -17 12 -3 29 10 11 20 54 27 108 6 50 21 119 32
155 15 43 18 66 11 68 -19 6 -12 30 18 54 40 32 56 65 40 84 -14 17 1 39 32
49 10 4 19 12 19 20 0 7 7 16 16 19 8 3 12 10 9 16 -10 16 18 70 35 70 8 0 20
10 25 22 6 13 24 32 42 43 18 11 32 25 33 31 0 6 9 19 19 28 10 9 17 25 14 34
-2 11 5 21 24 29 15 7 33 23 38 35 7 15 20 24 40 26 23 2 35 12 50 39 17 31
26 37 60 40 56 5 64 9 59 30 -6 21 43 47 70 37 9 -4 24 0 34 9 9 8 31 18 47
22 17 4 40 12 53 18 17 8 25 8 34 -1 17 -17 28 -15 28 6 0 28 21 42 63 42 24
0 49 8 64 20 32 25 83 26 123 1 33 -20 72 -18 91 5 16 19 27 17 34 -6 6 -19
12 -20 53 -14 26 4 49 11 50 15 2 5 10 9 18 9 8 0 14 7 14 15 0 17 16 20 25 5z
m1538 -1803 c33 1 37 -2 37 -23 0 -16 8 -28 25 -36 14 -6 25 -16 25 -21 0 -5
-7 -4 -15 3 -13 10 -15 9 -15 -10 0 -18 4 -21 23 -16 19 4 26 0 35 -19 6 -14
16 -25 22 -25 21 0 9 -26 -21 -43 -36 -20 -34 -41 5 -45 22 -3 27 -8 23 -23
-3 -10 -1 -19 4 -19 16 0 9 -47 -11 -73 -23 -29 -24 -38 -8 -106 7 -30 17 -51
25 -51 22 0 15 -60 -12 -96 -14 -18 -25 -39 -25 -47 0 -8 11 -18 25 -21 29 -7
32 -18 10 -36 -8 -7 -15 -17 -15 -23 0 -6 -7 -18 -15 -27 -20 -22 -37 -80 -24
-80 5 0 9 -5 9 -10 0 -6 -11 -8 -25 -4 -19 5 -25 2 -25 -10 0 -9 7 -19 16 -23
43 -16 -24 -130 -69 -117 -16 5 -18 2 -12 -15 5 -16 1 -23 -19 -31 -14 -5 -26
-15 -26 -21 0 -8 4 -8 15 1 9 7 19 10 23 6 4 -4 0 -13 -8 -19 -9 -7 -14 -20
-12 -29 5 -26 -25 -22 -31 3 -6 22 -34 21 -29 -1 1 -7 -2 -18 -9 -26 -9 -11
-6 -16 14 -23 39 -15 40 -28 6 -45 -37 -18 -67 -20 -104 -6 -23 9 -28 7 -32
-9 -4 -16 -11 -18 -41 -14 -21 3 -45 14 -55 24 -10 11 -24 19 -31 19 -15 0
-50 37 -59 63 -4 9 -16 17 -27 17 -23 0 -25 15 -7 50 11 22 11 29 -7 53 -11
15 -25 27 -32 27 -24 0 -25 20 -2 50 18 25 22 43 21 92 -1 33 -6 65 -12 71 -7
7 -7 14 0 23 7 9 5 18 -10 33 -22 22 -28 56 -11 66 15 10 12 35 -5 35 -19 0
-19 7 1 27 12 13 14 28 10 72 -4 31 -8 74 -9 96 -1 22 -8 45 -15 50 -11 9 -8
13 12 23 19 9 26 19 26 41 0 16 -5 33 -10 36 -7 4 -8 26 -4 58 8 62 9 64 29
47 18 -15 49 -5 42 13 -7 19 8 41 22 33 6 -4 11 -14 11 -22 0 -18 20 -18 48 2
12 8 22 26 22 40 0 21 5 24 34 24 19 0 38 -4 41 -10 10 -17 27 -11 21 8 -4 13
6 22 39 38 25 12 48 18 51 13 10 -16 24 -9 24 12 0 18 4 20 33 12 17 -4 49 -7
70 -6z m3147 9 c0 -2 -7 -6 -15 -10 -8 -3 -15 -1 -15 4 0 6 7 10 15 10 8 0 15
-2 15 -4z m-4933 -506 c6 -24 12 -25 40 -5 32 23 140 10 155 -19 6 -12 10 -23
9 -26 -1 -3 11 -7 26 -8 15 -2 35 -10 45 -18 11 -10 18 -12 23 -5 3 6 18 11
32 11 24 0 25 -2 20 -40 -4 -34 -2 -40 13 -40 33 0 42 -93 11 -109 -13 -7 -17
-18 -13 -36 4 -21 -2 -32 -31 -56 -20 -16 -39 -38 -42 -49 -4 -11 -15 -20 -25
-20 -25 0 -33 -16 -34 -64 -1 -40 -2 -41 -53 -56 -38 -10 -56 -22 -69 -44 -16
-28 -16 -30 2 -43 18 -14 18 -15 -6 -33 -14 -11 -36 -20 -50 -20 -32 0 -42 -8
-58 -43 -7 -18 -18 -27 -29 -25 -11 2 -19 -5 -21 -17 -5 -26 -21 -45 -38 -45
-20 0 -104 -53 -104 -66 0 -7 -10 -14 -21 -17 -15 -4 -20 -11 -15 -22 8 -22
-19 -30 -51 -16 -18 8 -29 9 -39 1 -14 -12 -116 -4 -146 11 -11 6 -21 4 -31
-6 -10 -10 -26 -12 -53 -8 -49 8 -63 22 -57 57 5 23 2 27 -13 26 -42 -5 -48
-1 -30 19 13 14 16 28 11 52 -4 21 0 51 9 77 8 23 13 48 10 56 -3 7 2 16 11
20 10 3 15 12 11 21 -3 8 -1 17 4 20 6 4 10 17 10 29 0 13 7 29 15 36 8 7 12
16 9 21 -3 5 0 9 5 9 6 0 11 11 11 25 0 26 25 45 59 45 11 0 26 10 32 23 24
46 104 118 145 131 13 4 26 22 35 48 7 23 21 43 31 46 10 2 18 10 18 16 0 7
14 22 31 35 16 12 34 33 39 45 6 16 23 28 56 37 26 8 53 24 62 37 18 27 32 28
39 2z m-71 -1454 c5 -12 56 -32 74 -29 3 0 20 4 38 8 27 6 32 4 32 -13 0 -11
-7 -25 -15 -32 -23 -19 -18 -40 10 -40 14 0 29 -8 35 -20 6 -11 17 -20 24 -20
7 0 16 -13 19 -29 4 -17 14 -32 26 -36 12 -3 22 -19 26 -38 4 -18 12 -37 17
-44 11 -13 3 -61 -15 -96 -16 -30 -108 -147 -116 -147 -4 0 -11 -13 -17 -28
-10 -25 -14 -27 -52 -24 -36 4 -43 1 -50 -19 -7 -19 -16 -22 -54 -22 -26 0
-51 4 -57 8 -7 4 -18 2 -26 -5 -10 -9 -19 -9 -35 0 -30 16 -70 5 -70 -19 0
-14 -5 -18 -20 -14 -11 3 -20 12 -20 19 0 8 -4 14 -10 14 -5 0 -7 -7 -4 -15 7
-17 -11 -21 -21 -5 -12 20 -34 9 -37 -17 -3 -29 -7 -30 -60 -17 -19 4 -34 0
-52 -13 -21 -17 -33 -19 -82 -12 -44 6 -62 4 -78 -7 -26 -18 -36 -18 -36 0 0
17 -27 28 -50 21 -10 -3 -29 -1 -43 4 -22 9 -29 6 -46 -17 l-19 -27 -23 28
c-14 19 -28 27 -40 24 -11 -3 -31 6 -51 24 -24 21 -28 29 -16 29 9 0 20 -4 23
-10 8 -13 35 -13 35 1 0 6 -8 13 -19 16 -10 2 -24 16 -30 29 -9 20 -16 23 -36
18 -15 -4 -25 -2 -25 5 0 6 7 11 15 11 8 0 15 6 15 14 0 14 -29 26 -66 26 -16
0 -23 7 -26 30 -3 20 0 34 10 39 12 7 12 12 -3 34 -15 24 -15 27 0 51 10 14
27 26 38 26 20 0 20 0 2 14 -19 14 -19 15 5 34 13 11 30 18 36 15 7 -2 24 3
38 12 20 13 24 23 20 41 -5 17 -2 24 9 24 8 0 22 3 30 6 9 3 17 -1 19 -11 3
-15 6 -15 26 4 18 15 28 18 41 9 24 -15 91 26 91 57 0 40 25 49 149 55 l116 5
3 26 c4 32 47 46 73 23 23 -20 123 -18 161 4 23 13 32 14 35 5 7 -19 45 -15
73 7 30 23 49 25 56 6z m991 -253 c39 -29 53 -29 50 -1 -1 17 4 24 21 26 12 2
22 -1 22 -6 0 -5 27 -17 59 -26 59 -16 60 -16 113 8 l53 25 3 -27 c2 -19 12
-32 30 -40 15 -6 38 -27 50 -46 23 -33 23 -37 8 -67 -18 -36 -8 -59 25 -59 23
0 24 -13 4 -30 -8 -7 -15 -18 -15 -25 0 -7 7 -15 15 -19 12 -4 15 -24 15 -88
0 -72 3 -86 21 -101 13 -12 18 -24 14 -35 -4 -9 -9 -35 -12 -57 -3 -22 -12
-53 -20 -68 -8 -15 -11 -33 -7 -39 4 -6 -4 -19 -17 -29 l-24 -19 28 -25 c26
-23 27 -27 17 -65 -8 -30 -16 -40 -31 -40 -13 0 -19 -5 -16 -12 3 -7 8 -20 11
-29 4 -9 -3 -25 -16 -40 -24 -26 -51 -126 -36 -135 4 -3 6 -10 3 -15 -4 -5 -8
-32 -11 -61 -3 -44 -9 -56 -39 -81 -22 -18 -35 -37 -35 -52 0 -36 -10 -55 -29
-55 -23 0 -43 -44 -35 -76 5 -18 2 -24 -10 -24 -9 0 -19 -7 -22 -15 -5 -12
-20 -15 -65 -13 -47 2 -61 -1 -72 -16 -8 -10 -20 -17 -28 -14 -7 2 -21 -4 -30
-15 -14 -18 -16 -18 -22 -4 -3 9 -2 19 3 22 6 4 10 15 10 26 0 17 -6 19 -37
18 -23 -1 -55 6 -79 19 -34 17 -43 28 -48 57 -5 26 -12 35 -26 35 -25 0 -58
59 -40 70 9 6 9 10 -2 16 -8 5 -17 17 -21 27 -3 9 -15 17 -24 17 -19 0 -21 14
-21 130 0 19 0 46 -1 60 0 14 0 34 0 45 1 11 1 33 2 48 0 23 5 29 28 34 30 6
37 17 19 28 -5 3 -10 15 -10 25 0 11 -8 20 -20 22 -25 4 -22 24 3 21 21 -3 21
6 2 31 -13 17 -13 22 1 37 14 15 13 18 -6 32 -17 12 -18 16 -7 26 17 13 11 55
-9 72 -20 16 -17 29 6 29 33 0 35 28 5 60 -31 33 -26 50 16 50 33 0 36 6 12
32 -12 14 -16 36 -15 87 1 49 -3 73 -13 81 -17 14 -11 30 11 30 8 0 14 -8 14
-17 0 -14 3 -13 16 6 15 21 15 26 0 57 -21 44 -20 54 2 54 23 0 57 35 71 73
10 25 15 28 42 22 28 -6 30 -5 24 14 -9 31 -1 37 47 36 28 0 54 -8 75 -22z
m2533 -1739 c0 -8 -4 -12 -10 -9 -5 3 -10 10 -10 16 0 5 5 9 10 9 6 0 10 -7
10 -16z m-6410 -264 c0 -5 -2 -10 -4 -10 -3 0 -8 5 -11 10 -3 6 -1 10 4 10 6
0 11 -4 11 -10z m3905 -739 c-3 -6 -11 -11 -17 -11 -6 0 -6 6 2 15 14 17 26
13 15 -4z"/>
<path d="M11025 9890 c-3 -5 -1 -10 4 -10 6 0 11 5 11 10 0 6 -2 10 -4 10 -3
0 -8 -4 -11 -10z"/>
<path d="M11025 9840 c3 -5 11 -10 16 -10 6 0 7 5 4 10 -3 6 -11 10 -16 10 -6
0 -7 -4 -4 -10z"/>
<path d="M10197 9456 c-50 -42 -63 -103 -36 -164 10 -24 18 -30 33 -26 10 3
22 1 26 -5 9 -15 58 -24 79 -15 18 8 27 11 41 13 6 0 10 9 10 19 0 10 7 27 15
38 18 24 19 34 2 34 -9 0 -12 10 -9 30 3 18 0 30 -7 30 -6 0 -11 8 -11 19 0
20 -20 29 -81 41 -29 5 -42 2 -62 -14z"/>
<path d="M9232 9282 c-19 -3 -81 -52 -65 -52 3 0 0 -6 -6 -13 -6 -8 -8 -17 -4
-20 3 -4 8 -19 9 -33 2 -15 5 -33 8 -40 8 -20 60 -43 98 -44 71 -1 78 1 78 14
0 8 9 18 20 21 20 6 52 65 47 88 -3 18 -24 37 -40 37 -8 0 -17 9 -20 21 -3 12
-10 18 -16 14 -6 -3 -11 -2 -11 3 0 8 -56 11 -98 4z"/>
<path d="M9910 9105 c-15 -8 -32 -10 -46 -5 -12 5 -24 7 -26 5 -2 -2 -15 -6
-28 -9 -14 -3 -45 -11 -70 -19 -43 -14 -45 -15 -45 -56 0 -24 -6 -46 -14 -50
-9 -6 -10 -11 -2 -15 6 -4 11 -2 11 3 0 6 4 11 9 11 5 0 7 -8 4 -19 -3 -13 2
-20 19 -25 39 -12 78 -14 78 -4 0 6 7 8 15 5 18 -7 27 7 34 52 3 18 11 33 16
32 12 -2 7 -65 -6 -69 -16 -6 -10 -59 7 -66 22 -8 22 -9 22 20 0 33 14 46 54
51 48 4 78 23 76 47 -1 12 2 32 5 46 4 14 4 19 1 12 -8 -18 -24 -4 -17 15 5
12 2 15 -10 10 -22 -8 -47 2 -47 18 0 21 -13 24 -40 10z m-103 -97 c-3 -8 -6
-5 -6 6 -1 11 2 17 5 13 3 -3 4 -12 1 -19z"/>
<path d="M9970 9090 c0 -5 5 -10 11 -10 5 0 7 5 4 10 -3 6 -8 10 -11 10 -2 0
-4 -4 -4 -10z"/>
<path d="M10520 8878 c-106 -12 -202 -20 -245 -22 -62 -3 -80 -18 -76 -67 1
-14 14 -16 89 -15 48 0 90 4 93 8 3 5 34 10 70 12 35 2 64 5 64 6 0 1 29 3 63
5 40 2 70 9 81 19 10 9 28 16 40 16 18 0 22 5 19 23 -3 20 -8 22 -68 22 -36 1
-94 -3 -130 -7z"/>
<path d="M10218 8709 c-16 -4 -28 -4 -28 -1 0 4 -5 0 -10 -8 -16 -25 -12 -50
9 -50 11 0 23 -5 26 -10 4 -6 25 -11 48 -11 49 0 90 -4 132 -12 17 -3 48 -7
70 -8 22 -2 45 -5 50 -8 6 -3 27 -6 49 -6 30 -1 40 4 49 22 8 19 6 26 -14 42
-25 20 -75 28 -281 44 -31 3 -60 7 -65 10 -4 2 -20 1 -35 -4z"/>
<path d="M11675 8270 c-3 -6 1 -13 10 -16 19 -8 30 0 20 15 -8 14 -22 14 -30
1z"/>
<path d="M11380 8220 c0 -5 5 -10 10 -10 6 0 10 5 10 10 0 6 -4 10 -10 10 -5
0 -10 -4 -10 -10z"/>
<path d="M11615 7910 c-3 -5 -1 -10 4 -10 6 0 11 5 11 10 0 6 -2 10 -4 10 -3
0 -8 -4 -11 -10z"/>
<path d="M11680 7811 c0 -12 5 -21 10 -21 6 0 10 6 10 14 0 8 -4 18 -10 21 -5
3 -10 -3 -10 -14z"/>
<path d="M11391 7764 c0 -11 3 -14 6 -6 3 7 2 16 -1 19 -3 4 -6 -2 -5 -13z"/>
<path d="M9450 7704 c0 -8 5 -12 10 -9 6 3 10 10 10 16 0 5 -4 9 -10 9 -5 0
-10 -7 -10 -16z"/>
<path d="M9182 7319 c2 -7 10 -15 17 -17 8 -3 12 1 9 9 -2 7 -10 15 -17 17 -8
3 -12 -1 -9 -9z"/>
<path d="M9140 6445 c0 -18 19 -40 26 -32 4 4 0 15 -9 24 -9 10 -17 13 -17 8z"/>
<path d="M8890 6243 c0 -5 4 -15 10 -23 11 -18 25 -7 17 15 -6 15 -27 21 -27
8z"/>
</g>
</svg>
